<svg width="24" height="24" viewBox="0 0 24 24" fill="none" xmlns="http://www.w3.org/2000/svg">
<path d="M12 1.5C16.4528 1.5 20.25 5.2972 20.25 9.75C20.25 11.8789 18.9054 14.622 16.2275 18.0312L15.8047 18.5615C15.7325 18.6507 15.6589 18.74 15.585 18.8301L15.1309 19.376L14.6562 19.9326L14.1602 20.499L13.6426 21.0771C13.5549 21.174 13.4664 21.2714 13.377 21.3691L12.8281 21.9629L12.5459 22.2646C12.2499 22.5787 11.7501 22.5787 11.4541 22.2646C11.2643 22.0632 11.0783 21.8629 10.8955 21.665L10.3574 21.0771L9.83984 20.499L9.34375 19.9326L8.86914 19.376L8.41504 18.8301C8.34111 18.74 8.26749 18.6507 8.19531 18.5615L7.77246 18.0312C5.09458 14.622 3.75 11.8789 3.75 9.75C3.75 5.2972 7.5472 1.5 12 1.5ZM12 3C8.37563 3 5.25 6.12563 5.25 9.75C5.25 11.4859 6.47929 13.9515 8.94824 17.0967L9.35938 17.6123C9.42973 17.6993 9.50108 17.787 9.57324 17.875L10.0166 18.4092C10.0924 18.4991 10.1695 18.5898 10.2471 18.6807L10.7236 19.2314L11.2217 19.7949L11.7422 20.3701L12 20.6494L12.5264 20.0742L13.0459 19.4932L13.543 18.9248L14.0176 18.3682C14.0946 18.2766 14.1709 18.1853 14.2461 18.0947L14.6865 17.5566C14.8295 17.3793 14.9691 17.2034 15.1045 17.0303L15.499 16.5176C15.7547 16.1796 15.9953 15.8496 16.2207 15.5283L16.5469 15.0527C17.9665 12.9408 18.6985 11.2127 18.7471 9.88965L18.75 9.75C18.75 6.12563 15.6244 3 12 3Z" fill="#826CF4"/>
<path d="M12 5.25C14.4853 5.25 16.5 7.26472 16.5 9.75C16.5 12.2353 14.4853 14.25 12 14.25C9.51472 14.25 7.5 12.2353 7.5 9.75C7.5 7.26472 9.51472 5.25 12 5.25ZM12 6.75C10.3431 6.75 9 8.09315 9 9.75C9 11.4069 10.3431 12.75 12 12.75C13.6569 12.75 15 11.4069 15 9.75C15 8.09315 13.6569 6.75 12 6.75Z" fill="#826CF4"/>
</svg>
