<svg width="87" height="90" viewBox="0 0 87 90" fill="none" xmlns="http://www.w3.org/2000/svg">
<g clip-path="url(#clip0_150_5513)">
<path d="M52.6391 15.9547C52.2708 15.7784 52.1705 15.6535 52.0152 15.6141C41.1943 15.3101 31.6219 18.5896 23.8451 26.2878C21.8764 28.2269 20.4492 30.6349 19.5608 33.3286C17.6064 39.0858 19.539 45.1645 24.4161 48.7222C26.9474 50.5909 29.696 51.9342 32.9314 51.958C33.8993 50.8267 34.8245 49.668 35.8226 48.6771C37.4585 47.0683 39.4283 46.1577 41.7799 46.339C43.5254 46.4331 44.8035 47.2545 45.0451 48.3771C45.3623 49.8506 44.5924 51.0486 43.4061 51.6767C41.7593 52.553 39.9971 53.2343 38.2473 53.8025C37.1134 54.162 35.8489 54.2562 34.6696 54.4051C32.2865 59.7054 35.525 64.6887 42.2704 66.1824C42.8808 65.6074 43.5187 64.9895 44.1716 64.4418C46.6461 62.4651 49.4597 61.5528 52.5933 62.297C53.7931 62.5845 54.9407 63.1406 55.2152 64.5867C55.4143 65.682 54.6444 66.88 53.1928 67.6399C50.8752 68.8106 48.3613 69.0692 45.8296 69.0744C44.9431 69.0488 44.0566 69.0232 43.1975 68.9548C39.2374 76.9899 42.5161 86.594 51.0017 87.8155C50.6016 88.3443 50.3417 88.8423 50.0063 88.9895C49.6008 89.1521 49.0222 89.0221 48.5838 88.8612C44.5227 87.2185 41.4321 84.6277 40.3679 80.1953C39.5453 76.8855 39.6793 73.586 40.502 70.2453C40.6217 69.7781 40.7413 69.3109 40.8184 68.8163C40.8459 68.7735 40.7882 68.676 40.7003 68.4381C40.2894 68.2345 39.8208 67.9333 39.2972 67.7177C33.0111 64.9473 31.0189 61.4904 31.8148 54.4446C31.1936 54.2872 30.4872 54.0751 29.7959 53.933C25.8006 52.9372 22.4653 50.9146 19.8573 47.6665C15.6018 42.3923 15.1057 35.4835 18.5171 29.3326C20.3664 25.9868 22.9001 23.2621 25.9752 21.0064C33.4341 15.5826 41.6923 12.8491 50.9862 13.5622C51.4645 13.5674 51.9579 13.6426 52.4362 13.6477C52.5063 13.6323 52.6039 13.5741 52.8967 13.3996C51.6682 12.1264 50.2224 11.3786 48.8042 10.588C47.456 9.78201 46.0103 9.03421 44.5068 8.18887C45.3496 7.15858 46.221 7.11404 47.1102 7.32278C48.1272 7.61366 49.1993 7.81896 50.0788 8.32378C52.4343 9.71671 54.8049 11.1798 57.0655 12.8141C58.8148 14.1197 58.6936 15.4324 56.9217 16.4097C53.1402 18.4533 49.3161 20.4695 45.492 22.4857C44.8638 22.8074 44.2054 22.9889 43.3518 23.2867C43.1473 21.8252 43.9281 21.3597 44.6388 20.9095C47.3165 19.3657 49.8665 17.7398 52.6391 15.9547ZM53.1123 65.0489C49.9252 63.5448 46.8835 64.25 45.0508 66.8206C47.8354 66.7965 50.4523 66.846 53.1123 65.0489ZM42.9751 49.1627C40.0766 48.1463 37.7838 49.0911 36.362 51.8653C38.8608 51.5366 41.0916 51.1566 42.9751 49.1627Z" fill="#678CAF"/>
</g>
<defs>
<clipPath id="clip0_150_5513">
<rect width="59" height="69" fill="white" transform="translate(49.6333 89.9446) rotate(-147.272)"/>
</clipPath>
</defs>
</svg>
