<svg width="88" height="91" viewBox="0 0 88 91" fill="none" xmlns="http://www.w3.org/2000/svg">
<g clip-path="url(#clip0_150_5510)">
<path d="M34.1105 73.9496C34.4768 74.1302 34.5756 74.2563 34.7304 74.2974C45.547 74.7282 55.1571 71.5611 63.0236 63.9545C65.0148 62.0386 66.4702 59.6475 67.3901 56.9644C69.4118 51.2305 67.5506 45.1295 62.7155 41.515C60.2062 39.6168 57.4735 38.2414 54.2386 38.1797C53.2576 39.2995 52.3188 40.4473 51.3092 41.4264C49.6546 43.016 47.6743 43.9034 45.3249 43.6946C43.5806 43.5801 42.3123 42.7438 42.0838 41.6184C41.7839 40.1413 42.5678 38.9524 43.7614 38.3382C45.4183 37.4812 47.1883 36.8207 48.9447 36.2729C50.0828 35.9268 51.3483 35.8474 52.5293 35.7123C54.9742 30.4403 51.7944 25.4194 45.0669 23.8468C44.4498 24.4147 43.8047 25.025 43.1454 25.565C40.648 27.5126 37.8238 28.3919 34.6992 27.611C33.5028 27.3095 32.3619 26.7399 32.1042 25.2907C31.918 24.1932 32.702 23.0043 34.1623 22.2614C36.4935 21.1179 39.0102 20.8889 41.5418 20.9133C42.428 20.9493 43.3141 20.9853 44.1723 21.0637C48.2263 13.0756 45.0603 3.43373 36.5896 2.11294C36.9959 1.58883 37.2616 1.09388 37.5987 0.950622C38.0061 0.792781 38.5831 0.929585 39.0196 1.09556C43.0612 2.78572 46.1212 5.41261 47.1334 9.85718C47.9172 13.1763 47.7445 16.4741 46.8828 19.8049C46.7576 20.2707 46.6325 20.7364 46.5496 21.2301C46.5216 21.2726 46.5782 21.3708 46.6633 21.6097C47.0718 21.8181 47.5369 22.1247 48.0579 22.3465C54.3111 25.1903 56.2627 28.6703 55.3843 35.7062C56.0036 35.8709 56.7075 36.0913 57.3971 36.2414C61.3804 37.284 64.6918 39.3456 67.2616 42.624C71.455 47.9477 71.8701 54.8618 68.3869 60.9723C66.4985 64.2963 63.9331 66.9911 60.8318 69.2106C53.3099 74.5466 45.0202 77.1832 35.7353 76.3612C35.2571 76.3505 34.7646 76.2695 34.2864 76.2588C34.2161 76.2733 34.1179 76.3304 33.823 76.5015C35.0365 77.789 36.4734 78.5537 37.8823 79.3609C39.2209 80.1826 40.6578 80.9473 42.1513 81.8102C41.2965 82.8305 40.4246 82.8648 39.5379 82.6457C38.5244 82.3429 37.4548 82.1251 36.5813 81.61C34.2423 80.1896 31.889 78.6988 29.6477 77.0382C27.9137 75.7121 28.0503 74.401 29.8335 73.4445C33.6387 71.4453 37.4862 69.4741 41.3337 67.5028C41.9656 67.1884 42.6261 67.0147 43.4831 66.7269C43.6704 68.1907 42.8843 68.647 42.1684 69.0888C39.4727 70.6012 36.9039 72.1971 34.1105 73.9496ZM34.2125 24.8532C37.3817 26.3946 40.4315 25.725 42.2942 23.1761C39.5095 23.1675 36.8933 23.0874 34.2125 24.8532ZM44.1629 40.857C47.0493 41.9073 49.353 40.9895 50.8071 38.2321C48.3047 38.5315 46.0696 38.8854 44.1629 40.857Z" fill="#678CAF"/>
</g>
<defs>
<clipPath id="clip0_150_5510">
<rect width="59" height="69" fill="white" transform="translate(37.9829) rotate(33.3997)"/>
</clipPath>
</defs>
</svg>
