<svg width="298" height="314" viewBox="0 0 298 314" fill="none" xmlns="http://www.w3.org/2000/svg">
<path d="M229.072 140.082C229.111 139.364 229.503 138.64 231.009 138.595C231.412 138.558 231.817 138.652 232.167 138.866C232.517 139.079 232.797 139.401 232.967 139.788C235.649 139.834 244.029 141.145 244.017 151.216C244.001 161.002 232.967 161.107 232.967 161.107C232.823 161.59 232.532 162.01 232.138 162.301C231.744 162.592 231.271 162.738 230.79 162.716C229.218 162.716 229.051 161.435 229.047 160.696C229.051 160.704 229.051 140.455 229.072 140.082ZM193.053 160.768C193.053 160.768 183.937 158.196 183.535 149.924C183.133 141.652 192.889 139.185 192.889 139.185C192.755 140.862 193.053 160.768 193.053 160.768ZM263.615 206.91C293.475 237.794 287.54 284.577 250.963 290.185L252.076 302.986C252.076 302.986 209.583 307.577 174.209 301.167L175.712 259.992C175.712 259.992 149.584 264.859 138.725 238.012C131.963 220.504 128.002 201.935 127.003 183.062L143.321 180.256C143.321 180.256 153.215 204.874 160.228 215.663C166.062 206.302 174.221 198.808 183.818 193.997C190.222 190.5 197.194 188.303 204.37 187.522L203.923 190.295C206.015 192.638 208.905 194.01 211.957 194.11C213.919 193.966 215.831 193.392 217.571 192.427C219.311 191.461 220.842 190.125 222.065 188.502L222.119 186.576C222.119 186.576 246.034 188.731 263.615 206.917V206.91ZM250.503 259.879C250.503 259.879 255.882 254.329 255.666 248.093C255.45 241.857 250.503 236.318 250.503 236.318V259.879Z" fill="white"/>
<path d="M193.053 134.632C193.698 134.611 194.329 134.437 194.901 134.124C195.473 133.81 195.971 133.366 196.358 132.822C196.358 132.822 199.371 138.204 204.37 133.784C204.37 133.784 207.201 138.26 211.592 133.784C211.592 133.784 215.229 138.769 220.122 136.051C220.122 136.051 219.96 141.01 226.036 140.655C226.036 140.655 222.338 147.834 229.052 151.064C229.052 151.064 230.567 166.921 226.036 172.194C221.505 177.468 218.777 177.292 218.508 178.595C218.648 182.216 219.892 185.693 222.058 188.508C222.058 188.508 213.687 199.671 203.963 190.216C204.285 189.639 206.086 186.059 205.498 179.445C205.498 179.445 194.756 176.16 193.542 165.14C192.328 154.121 193.053 134.632 193.053 134.632Z" fill="#FCCAC2"/>
<path d="M139.96 180.575L130.996 182.048C130.996 182.048 130.673 178.153 128.186 176.722C125.295 175.06 118.83 175.031 115.767 173.606C112.246 171.967 107.572 163.512 111.893 162.051C115.791 160.733 117.406 167.786 125.119 169.868C132.368 171.824 136.773 168.612 139.379 171.609C141.17 173.662 138.778 179.101 139.96 180.575Z" fill="#FCCAC2"/>
<path d="M215.122 275.973C215.122 275.973 215.66 286.134 217.164 288.362C214.693 289.003 212.086 288.708 209.799 287.53C209.799 287.53 204.531 290.701 204.368 285.886C204.368 285.886 200.606 290.475 200.122 285.15C200.122 285.15 197.003 288.323 196.358 284.47C196.358 284.47 194.64 289.18 193.214 288.946C191.788 288.712 193.047 277.923 196.304 274.444C200.176 270.308 205.391 273.423 215.122 275.973Z" fill="#FCCAC2"/>
<path d="M206.237 159.344C206.384 159.344 206.526 159.294 206.645 159.204C206.764 159.113 206.853 158.985 206.899 158.839C206.945 158.692 206.946 158.533 206.901 158.386C206.857 158.239 206.77 158.11 206.653 158.017C205.644 157.258 204.723 156.379 203.908 155.395C204.167 155.383 206.469 155.56 206.994 154.94C207.211 154.686 207.79 154.155 207.579 145.834C207.579 145.737 207.56 145.641 207.523 145.552C207.487 145.463 207.433 145.383 207.366 145.316C207.3 145.249 207.221 145.198 207.134 145.164C207.048 145.13 206.956 145.115 206.864 145.12C206.773 145.122 206.682 145.144 206.599 145.183C206.515 145.222 206.439 145.278 206.376 145.348C206.313 145.418 206.264 145.501 206.231 145.591C206.198 145.681 206.182 145.777 206.185 145.873C206.324 148.537 206.259 151.208 205.991 153.86C205.754 154.187 202.668 153.56 202.406 154.672C202.32 155.041 201.853 156.094 205.821 159.196C205.941 159.291 206.087 159.343 206.237 159.344Z" fill="#501200"/>
<path d="M218.333 153.311C218.435 153.311 218.536 153.288 218.628 153.242C218.721 153.197 218.803 153.131 218.868 153.048C218.934 152.966 218.982 152.87 219.008 152.766C219.034 152.662 219.039 152.553 219.021 152.447C218.933 151.916 218.079 147.252 215.51 147.252C212.995 147.252 212.346 151.946 212.279 152.482C212.255 152.675 212.305 152.87 212.418 153.025C212.531 153.179 212.698 153.28 212.881 153.305C213.065 153.33 213.25 153.277 213.397 153.158C213.544 153.039 213.639 152.863 213.663 152.67C213.861 151.078 214.585 148.721 215.51 148.721C216.51 148.721 217.376 151.097 217.647 152.703C217.676 152.873 217.76 153.027 217.885 153.138C218.011 153.249 218.169 153.31 218.333 153.311Z" fill="#501200"/>
<path d="M201.682 152.97C201.784 152.97 201.884 152.947 201.977 152.902C202.069 152.856 202.151 152.79 202.217 152.708C202.282 152.626 202.33 152.53 202.357 152.426C202.383 152.322 202.388 152.214 202.37 152.108C202.281 151.576 201.428 146.911 198.86 146.911C196.343 146.911 195.693 151.605 195.628 152.141C195.607 152.332 195.659 152.525 195.772 152.676C195.885 152.828 196.049 152.927 196.231 152.952C196.412 152.977 196.595 152.925 196.741 152.809C196.887 152.693 196.984 152.521 197.01 152.331C197.209 150.737 197.934 148.382 198.86 148.382C199.961 148.382 200.786 151.116 200.995 152.362C201.023 152.532 201.108 152.686 201.233 152.797C201.359 152.909 201.518 152.97 201.682 152.97Z" fill="#501200"/>
<path d="M211.376 143.01C211.824 142.509 212.369 142.115 212.973 141.853C213.577 141.592 214.227 141.468 214.88 141.492C215.533 141.515 216.174 141.684 216.76 141.989C217.346 142.293 217.864 142.725 218.279 143.256C218.34 143.328 218.414 143.387 218.497 143.429C218.58 143.471 218.67 143.495 218.761 143.501C218.853 143.506 218.945 143.493 219.032 143.461C219.118 143.429 219.198 143.379 219.267 143.314C219.335 143.25 219.391 143.172 219.431 143.084C219.471 142.997 219.494 142.903 219.499 142.806C219.504 142.709 219.491 142.612 219.461 142.521C219.43 142.43 219.383 142.346 219.322 142.273C218.152 140.941 216.545 140.126 214.827 139.994C214.007 139.986 213.193 140.153 212.436 140.486C211.679 140.818 210.994 141.309 210.422 141.928C209.692 142.655 210.835 143.664 211.376 143.01Z" fill="#501200"/>
<path d="M203.284 142.051C202.14 141.046 200.697 140.496 199.208 140.496C197.718 140.496 196.276 141.046 195.132 142.051C194.995 142.177 194.911 142.355 194.897 142.546C194.883 142.737 194.941 142.926 195.058 143.073C195.174 143.22 195.341 143.314 195.522 143.333C195.702 143.353 195.883 143.297 196.026 143.178C196.922 142.396 198.048 141.968 199.211 141.968C200.374 141.968 201.5 142.396 202.396 143.178C202.539 143.279 202.714 143.321 202.885 143.295C203.056 143.269 203.212 143.177 203.323 143.037C203.433 142.896 203.49 142.718 203.483 142.536C203.476 142.353 203.405 142.181 203.284 142.051Z" fill="#501200"/>
<path d="M209.436 164.728C210.021 164.33 210.516 163.801 210.886 163.18C211.257 162.559 211.493 161.86 211.58 161.132C211.603 160.939 211.551 160.744 211.437 160.59C211.323 160.436 211.156 160.336 210.972 160.313C210.788 160.289 210.603 160.343 210.457 160.463C210.311 160.583 210.217 160.76 210.194 160.953C210.134 161.447 209.977 161.922 209.733 162.348C209.488 162.774 209.163 163.142 208.776 163.428C208.212 163.63 207.61 163.688 207.02 163.596C206.431 163.505 205.87 163.266 205.386 162.9C205.305 162.855 205.216 162.827 205.125 162.818C205.034 162.809 204.942 162.819 204.855 162.848C204.767 162.876 204.686 162.923 204.615 162.984C204.545 163.046 204.486 163.122 204.444 163.207C204.401 163.292 204.374 163.386 204.366 163.482C204.357 163.578 204.367 163.675 204.394 163.767C204.421 163.859 204.465 163.945 204.524 164.019C204.582 164.094 204.654 164.155 204.735 164.2C205.42 164.682 206.205 164.982 207.024 165.074C207.843 165.166 208.67 165.047 209.436 164.728Z" fill="#501200"/>
<path d="M220.982 160.068C220.982 160.458 220.789 160.833 220.447 161.109C220.104 161.385 219.639 161.54 219.154 161.54C218.669 161.54 218.204 161.385 217.861 161.109C217.518 160.833 217.326 160.458 217.326 160.068C217.326 159.677 217.518 159.303 217.861 159.026C218.204 158.75 218.669 158.595 219.154 158.595C219.639 158.595 220.104 158.75 220.447 159.026C220.789 159.303 220.982 159.677 220.982 160.068Z" fill="#FCCAC2"/>
<path d="M199.6 160.209C199.588 160.405 199.528 160.594 199.424 160.767C199.32 160.94 199.174 161.092 198.995 161.215C198.815 161.338 198.606 161.429 198.379 161.483C198.153 161.537 197.913 161.552 197.674 161.529C197.436 161.505 197.203 161.443 196.99 161.346C196.776 161.248 196.587 161.118 196.432 160.962C196.278 160.807 196.161 160.628 196.089 160.438C196.017 160.248 195.992 160.05 196.014 159.856C196.026 159.66 196.086 159.471 196.19 159.298C196.294 159.125 196.44 158.973 196.62 158.85C196.799 158.727 197.008 158.636 197.235 158.582C197.462 158.528 197.701 158.513 197.94 158.536C198.178 158.56 198.411 158.622 198.625 158.719C198.838 158.816 199.027 158.947 199.182 159.102C199.337 159.258 199.453 159.436 199.525 159.626C199.597 159.816 199.623 160.014 199.6 160.209Z" fill="#FCCAC2"/>
<path d="M117.184 163.936C118.566 165.353 120.103 166.591 121.763 167.626C128.73 172.1 137.318 167.332 140.149 171.251C141.341 172.892 140.754 175.333 140.429 176.784C140.349 177.816 140.359 178.854 140.459 179.884C141.307 179.748 142.01 179.635 142.489 179.553C142.86 179.487 143.242 179.559 143.569 179.758C143.895 179.956 144.145 180.269 144.277 180.641C147.99 191.474 154.497 204.303 160.188 214.594C168.963 200.294 187.977 188.477 204.306 186.681C204.88 184.416 205.031 182.056 204.753 179.73C201.107 178.659 197.936 176.269 195.796 172.979C193.671 169.478 192.479 165.437 192.347 161.283C191.022 161.06 182.866 158.259 182.841 149.309C182.818 141.372 190.108 139.104 192.289 138.593C192.268 137.463 192.241 136.452 192.216 135.61C191.878 135.516 191.551 135.383 191.241 135.212C190.854 135.012 190.511 134.727 190.237 134.376C189.963 134.024 189.763 133.615 189.652 133.176C189.541 132.736 189.521 132.277 189.593 131.828C189.665 131.38 189.828 130.953 190.07 130.577C190.07 130.577 186.441 130.366 185.796 127.266C185.15 124.165 188.255 122.421 188.255 122.421C187.717 121.56 187.401 120.567 187.338 119.539C187.274 118.511 187.466 117.483 187.893 116.557C188.265 115.723 188.895 115.049 189.68 114.644C190.465 114.24 191.358 114.131 192.21 114.335C192.264 113.326 192.575 112.351 193.109 111.512C193.644 110.673 194.383 110.001 195.25 109.566C196.116 109.132 197.077 108.951 198.032 109.042C198.987 109.134 199.902 109.495 200.679 110.087C200.679 110.087 202.251 106.688 205.073 106.476C206.01 106.503 206.929 106.753 207.76 107.21C208.591 107.666 209.313 108.315 209.871 109.109C210.423 108.416 211.115 107.861 211.897 107.486C212.679 107.111 213.53 106.926 214.389 106.942C217.291 107.025 218.38 111.024 218.38 111.024C219.083 110.444 219.905 110.046 220.78 109.861C221.655 109.677 222.559 109.711 223.419 109.961C226.407 110.811 226.526 114.847 226.526 114.847C228.05 114.376 229.688 114.559 231.084 115.356C232.814 116.717 232.814 120.369 232.814 120.369C233.648 120.158 234.524 120.239 235.309 120.6C236.095 120.961 236.748 121.582 237.169 122.369C237.613 123.16 237.847 124.061 237.847 124.98C237.847 125.898 237.613 126.8 237.169 127.591C237.169 127.591 240.115 128.57 240.596 130.907C240.725 132.645 240.204 134.368 239.145 135.708C239.879 136.274 240.371 137.122 240.515 138.069C240.659 139.015 240.443 139.983 239.914 140.763C241.315 141.881 242.464 143.31 243.281 144.95C244.097 146.59 244.559 148.399 244.636 150.249C244.737 156.686 241.752 160.245 236.548 161.42C238.364 166.34 233.617 165.958 233.617 165.958C233.617 165.958 233.738 171.906 227.763 170.028C226.15 173.84 223.22 176.863 219.568 178.479C219.403 178.554 219.265 178.684 219.176 178.849C219.087 179.014 219.051 179.205 219.073 179.393C219.29 181.607 219.897 183.76 220.861 185.74C238.783 187.825 255.423 196.535 267.827 210.323C284.033 228.705 290.73 260.26 273.311 279.19C267.681 285.313 259.846 288.83 251.855 290.808C252.045 294.943 252.282 300.019 252.559 302.417C252.569 302.489 252.564 302.563 252.544 302.633C252.524 302.703 252.489 302.768 252.443 302.823C252.397 302.878 252.34 302.921 252.276 302.951C252.212 302.98 252.143 302.994 252.074 302.993C251.972 303.023 251.865 303.029 251.76 303.012C251.656 302.994 251.556 302.953 251.468 302.891C251.38 302.829 251.305 302.748 251.25 302.653C251.194 302.558 251.158 302.452 251.145 302.341C250.773 299.879 250.655 295.108 250.472 291.136C240.255 293.239 229.797 293.712 219.447 292.54C219.107 292.501 218.779 292.382 218.488 292.192C218.197 292.002 217.951 291.745 217.766 291.441C217.356 290.741 217.003 290.006 216.713 289.243C214.309 289.652 211.844 289.339 209.601 288.34C204.421 291.08 203.959 287.271 203.939 287.285C203.562 287.63 200.223 289.847 199.629 286.45C197.185 288.148 196.531 286.366 196.313 285.903C194.041 292.056 192.27 289.18 192.125 288.53C191.529 285.877 192.799 278.152 195.352 274.353C196.143 273.224 197.297 272.436 198.598 272.136C196.03 231.555 202.068 191.312 202.464 188.298C188.664 190.248 169.565 201.643 160.966 216.013C166.537 225.992 171.14 233.266 171.234 233.415C171.328 233.577 171.358 233.771 171.319 233.957C171.281 234.142 171.175 234.305 171.026 234.41C170.876 234.516 170.693 234.556 170.515 234.523C170.338 234.49 170.179 234.386 170.073 234.233C169.879 233.927 150.584 203.422 142.955 181.139C142.934 181.09 142.898 181.05 142.853 181.025C142.808 181.001 142.756 180.993 142.706 181.004C140.441 181.36 130.82 182.9 127.617 183.602C126.502 183.847 132.361 217.806 137.664 233.594C142.56 248.171 155.616 261.827 175.146 259.303C175.753 241.205 176.292 224.185 176.303 223.829C176.304 223.732 176.325 223.636 176.362 223.547C176.399 223.459 176.453 223.379 176.521 223.313C176.588 223.247 176.667 223.195 176.754 223.162C176.84 223.129 176.932 223.114 177.024 223.119C177.116 223.122 177.206 223.144 177.289 223.184C177.373 223.224 177.448 223.281 177.511 223.351C177.573 223.422 177.622 223.505 177.654 223.595C177.686 223.686 177.701 223.782 177.697 223.879C177.602 226.932 175.327 296.909 174.898 300.526C174.89 300.625 174.863 300.721 174.819 300.809C174.775 300.897 174.715 300.974 174.642 301.037C174.569 301.099 174.484 301.146 174.394 301.173C174.303 301.2 174.208 301.208 174.115 301.196C174.021 301.184 173.931 301.152 173.85 301.102C173.768 301.052 173.697 300.985 173.641 300.905C173.585 300.826 173.544 300.735 173.522 300.639C173.5 300.542 173.496 300.442 173.512 300.344C173.728 298.532 174.443 280.198 175.096 260.78C147.646 263.162 138.74 241.741 136.338 234.048C130.278 214.693 126.428 189.198 126.194 183.886C126.174 183.476 126.295 183.072 126.534 182.748C126.774 182.424 127.116 182.201 127.498 182.12C128.286 181.95 130.402 181.558 130.402 181.558C129.21 176.261 124.811 176.314 121.781 175.697C120.426 175.421 118.892 175.107 117.171 174.699C113.128 173.738 110.288 169.263 109.786 165.505C109.302 161.88 111.762 158.226 117.184 163.936ZM192.313 140.085C191.463 140.294 184.234 143.354 184.234 149.304C184.234 155.818 191.048 159.525 192.244 159.774C191.978 154.727 192.416 147.257 192.313 140.085ZM233.975 160.297C236.603 160.14 243.244 158.738 243.244 150.318C243.244 147.021 240.048 140.637 233.69 140.656C233.667 140.656 233.643 140.661 233.622 140.671C233.6 140.68 233.581 140.694 233.564 140.712C233.548 140.729 233.535 140.75 233.526 140.773C233.517 140.796 233.513 140.82 233.513 140.845C233.546 142.641 233.498 156.943 233.489 159.813C233.487 159.88 233.498 159.946 233.523 160.008C233.547 160.069 233.583 160.124 233.629 160.17C233.675 160.216 233.729 160.251 233.789 160.273C233.848 160.294 233.912 160.303 233.975 160.297ZM229.846 159.779C229.853 160.036 229.783 161.82 231.09 161.82C232.325 161.82 232.123 159.718 232.154 158.875C232.23 156.79 232.154 141.605 232.154 141.605C232.163 140.663 231.983 139.504 230.926 139.504C229.937 139.589 229.798 140.366 229.865 142.076C229.874 142.272 229.825 158.997 229.846 159.774V159.779ZM220.7 188.174C219.001 185.63 217.963 182.661 217.69 179.562C217.636 179.057 217.737 178.547 217.981 178.108C218.224 177.668 218.596 177.324 219.04 177.126C220.929 176.264 222.625 174.995 224.018 173.399C225.412 171.803 226.472 169.917 227.13 167.863C220.149 172.546 208.314 170.72 206.523 170.281C206.343 170.236 206.187 170.119 206.089 169.953C205.991 169.788 205.96 169.588 206.001 169.398C206.043 169.208 206.155 169.044 206.312 168.941C206.469 168.838 206.659 168.805 206.839 168.849C212.848 170.32 225.133 169.131 227.888 165.293C228.818 161.826 228.447 155.419 228.459 151.428C226.868 150.661 225.501 149.458 224.503 147.944C222.648 145.059 225.069 141.231 225.069 141.231C223.883 141.359 222.687 141.155 221.6 140.639C220.949 140.313 220.404 139.792 220.031 139.142C219.658 138.492 219.474 137.741 219.502 136.982C218.906 137.474 218.21 137.814 217.469 137.977C216.728 138.141 215.961 138.123 215.227 137.924C213.802 137.434 212.579 136.443 211.763 135.117C211.239 135.789 210.571 136.318 209.813 136.661C209.055 137.005 208.231 137.152 207.408 137.091C206.696 137.005 206.02 136.717 205.452 136.256C204.884 135.795 204.446 135.18 204.185 134.477C203.761 135.319 203.119 136.018 202.334 136.492C201.549 136.967 200.652 137.198 199.748 137.158C198.946 137.083 198.18 136.772 197.538 136.26C196.896 135.748 196.404 135.056 196.118 134.263C195.473 135.041 194.585 135.552 193.615 135.704C193.69 138.216 193.678 148.682 193.642 150.043C193.436 157.848 193.195 166.695 196.92 172.113C200.551 177.396 205.654 179.577 212.516 178.782C212.691 178.764 212.865 178.816 213.006 178.928C213.146 179.039 213.241 179.202 213.273 179.384C213.305 179.566 213.271 179.754 213.178 179.911C213.084 180.068 212.938 180.182 212.769 180.231C210.58 180.539 208.358 180.486 206.185 180.074C206.274 186.693 204.909 189.306 204.669 189.822C204.597 189.979 204.583 190.159 204.629 190.326C204.676 190.493 204.78 190.636 204.921 190.727C207.649 192.485 215.053 196.208 220.673 189.289C220.798 189.133 220.868 188.937 220.873 188.734C220.878 188.53 220.817 188.331 220.7 188.169V188.174ZM212.773 194.829L221.027 210.843C221.262 202.017 221.529 194.543 221.69 190.311C220.595 191.689 219.232 192.806 217.694 193.584C216.156 194.363 214.478 194.785 212.772 194.824L212.773 194.829ZM218.949 290.654C219.021 290.771 219.116 290.87 219.228 290.943C219.34 291.016 219.466 291.062 219.598 291.076C223.306 291.505 257.54 294.441 272.309 278.166C289.036 259.731 282.577 229.22 266.814 211.322C255.227 198.452 239.864 190.069 223.202 187.525C222.904 195.153 220.642 254.348 223.117 270.971C230.902 270.064 242.497 267.443 249.651 259.957C249.502 247.132 249.618 237.977 249.651 236.238C247.524 233.796 245.108 231.654 242.462 229.862C242.32 229.754 242.223 229.593 242.188 229.413C242.154 229.232 242.185 229.044 242.275 228.886C242.365 228.729 242.509 228.612 242.676 228.56C242.844 228.509 243.024 228.525 243.181 228.606C243.295 228.678 254.917 237.002 256.071 245.678C256.37 247.947 256.228 250.255 255.653 252.464C255.079 254.672 254.084 256.735 252.729 258.526C242.983 272.437 218.058 272.85 216.726 272.908C216.433 272.92 216.156 273.053 215.956 273.279C215.755 273.505 215.648 273.805 215.657 274.114C215.984 284.76 218.126 289.291 218.949 290.654ZM251.022 258.376C256.36 251.699 256.042 244.766 251.013 237.957C250.974 241.317 250.916 248.697 251.022 258.376ZM196.497 275.208C193.949 279 192.568 288.362 193.517 288.352C194.113 288.666 196.573 280.725 196.619 280.625C197.008 279.768 198.161 280.311 197.973 280.984C195.771 288.918 199.562 285.462 200.627 282.11C200.663 282.023 200.715 281.944 200.78 281.879C200.846 281.814 200.923 281.763 201.007 281.73C201.092 281.697 201.182 281.682 201.272 281.686C201.362 281.691 201.45 281.714 201.531 281.755C201.698 281.871 201.814 282.052 201.855 282.257C201.896 282.463 201.859 282.677 201.752 282.854C199.815 286.14 201.022 290.042 204.583 283.953C205.207 282.887 206.094 284.049 205.89 284.464C203.237 289.867 208.517 287.431 209.078 286.921C209.187 286.821 209.322 286.76 209.466 286.744C209.609 286.729 209.753 286.761 209.878 286.836C211.851 287.822 214.058 288.169 216.218 287.833C215.168 284.266 214.552 280.573 214.383 276.843C213.104 276.463 209.615 275.413 208.102 274.802C207.734 274.643 199.161 271.247 196.497 275.208ZM199.894 271.911C202.863 271.781 205.825 272.296 208.597 273.425C209.89 273.946 212.794 274.838 214.293 275.285C214.277 274.92 214.262 274.549 214.25 274.167C214.224 273.816 214.268 273.463 214.379 273.131C214.491 272.799 214.666 272.495 214.895 272.238C215.124 271.982 215.402 271.779 215.709 271.641C216.017 271.504 216.349 271.436 216.683 271.442C217.863 271.367 219.616 271.334 221.721 271.128C220.174 260.598 220.442 234.277 220.952 213.773L211.534 195.51L201.15 213.591C198.405 232.399 199.904 271.842 199.894 271.904V271.911ZM201.457 210.223L210.416 194.612C205.835 193.919 203.704 191.518 203.516 191.13C203.03 195.035 202.235 201.842 201.457 210.223ZM111.173 165.321C111.559 168.513 114.08 172.458 117.479 173.265C118.98 173.699 120.507 174.03 122.049 174.254C129.584 174.874 131.197 178.529 131.793 181.319C134.22 180.901 136.649 180.497 139.08 180.109C138.974 178.891 138.974 177.665 139.08 176.448C139.676 173.692 140.197 170.337 132.757 171.122C128.725 171.767 124.603 170.979 121.043 168.882C119.322 167.796 117.723 166.509 116.275 165.046C111.762 160.393 111.02 164.065 111.173 165.321Z" fill="#501200"/>
<path d="M209.109 169.527C209.109 169.78 209.042 170.03 208.912 170.264C208.781 170.498 208.59 170.71 208.349 170.889C208.108 171.068 207.821 171.21 207.506 171.307C207.191 171.404 206.853 171.453 206.512 171.453C206.171 171.453 205.834 171.404 205.519 171.307C205.203 171.21 204.917 171.068 204.676 170.889C204.435 170.71 204.244 170.498 204.113 170.264C203.983 170.03 203.915 169.78 203.915 169.527C203.915 169.274 203.983 169.023 204.113 168.79C204.244 168.556 204.435 168.344 204.676 168.165C204.917 167.986 205.203 167.844 205.519 167.747C205.834 167.65 206.171 167.601 206.512 167.601C206.853 167.601 207.191 167.65 207.506 167.747C207.821 167.844 208.108 167.986 208.349 168.165C208.59 168.344 208.781 168.556 208.912 168.79C209.042 169.023 209.109 169.274 209.109 169.527Z" fill="#FFB949"/>
<path d="M212.774 204.602C212.774 204.946 212.644 205.276 212.413 205.519C212.182 205.763 211.869 205.899 211.543 205.899C211.216 205.899 210.903 205.763 210.673 205.519C210.442 205.276 210.312 204.946 210.312 204.602C210.312 204.259 210.442 203.929 210.673 203.685C210.903 203.442 211.216 203.306 211.543 203.306C211.869 203.306 212.182 203.442 212.413 203.685C212.644 203.929 212.774 204.259 212.774 204.602Z" fill="#501200"/>
<path d="M212.774 211.017C212.774 211.361 212.644 211.691 212.413 211.934C212.182 212.178 211.869 212.314 211.543 212.314C211.216 212.314 210.903 212.178 210.673 211.934C210.442 211.691 210.312 211.361 210.312 211.017C210.312 210.673 210.442 210.344 210.673 210.1C210.903 209.857 211.216 209.721 211.543 209.721C211.869 209.721 212.182 209.857 212.413 210.1C212.644 210.344 212.774 210.673 212.774 211.017Z" fill="#501200"/>
<path d="M232.057 107.553C233.562 105.967 236.196 106.986 236.196 106.986C236.256 106.129 236.525 105.303 236.977 104.587C237.429 103.872 238.049 103.292 238.777 102.904C239.568 102.68 240.4 102.677 241.192 102.896C241.984 103.114 242.708 103.547 243.293 104.151C243.293 104.151 244.315 100.868 246.789 100.637C249.262 100.406 251.089 103.187 251.089 103.187C251.089 103.187 252.595 99.6165 255.708 99.7327C258.82 99.8489 259.632 103.414 259.632 103.414C260.19 102.963 260.844 102.66 261.537 102.532C262.23 102.404 262.942 102.454 263.612 102.678C265.87 103.463 266.193 106.7 266.193 106.7C267.45 106.235 268.823 106.255 270.067 106.757C271.572 107.663 271.248 111.175 271.248 111.175C272.016 111.074 272.795 111.143 273.535 111.377C274.276 111.611 274.962 112.005 275.55 112.534C276.03 113.141 276.347 113.871 276.469 114.65C276.591 115.429 276.514 116.228 276.246 116.965C277.037 117.044 277.802 117.302 278.489 117.723C279.175 118.143 279.768 118.715 280.224 119.4C281.461 121.609 279.365 123.989 279.365 123.989C280.184 124.087 280.962 124.426 281.608 124.967C282.254 125.507 282.743 126.228 283.019 127.048C283.223 127.837 283.144 128.677 282.797 129.408C282.45 130.14 281.86 130.711 281.139 131.013C281.139 131.013 284.799 132.988 284.207 135.764C283.615 138.54 280.498 138.388 280.498 138.388C280.702 139.184 280.72 140.021 280.551 140.827C280.383 141.632 280.032 142.383 279.53 143.016C277.809 144.942 274.154 143.644 274.154 143.644C274.154 143.644 274.799 147.439 272.272 148.572C271.525 148.89 270.711 148.989 269.916 148.858C269.12 148.728 268.373 148.373 267.753 147.831C267.462 148.812 266.828 149.639 265.979 150.144C265.13 150.65 264.13 150.795 263.183 150.55C259.473 149.922 260.065 145.564 260.065 145.564C260.065 145.564 256.57 146.192 255.548 143.299C255.257 142.441 255.159 141.524 255.262 140.619C255.366 139.715 255.668 138.848 256.144 138.088C255.442 138.029 254.767 137.772 254.19 137.345C253.613 136.918 253.156 136.335 252.865 135.658C252.575 134.981 252.462 134.235 252.538 133.496C252.615 132.758 252.878 132.054 253.3 131.459C252.776 131.679 252.206 131.748 251.648 131.658C251.09 131.569 250.566 131.324 250.128 130.949C249.691 130.538 249.365 130.012 249.186 129.424C249.006 128.837 248.978 128.209 249.106 127.606C249.106 127.606 247.289 129.26 245.665 128.456C245.153 128.186 244.707 127.795 244.362 127.313C244.017 126.832 243.782 126.273 243.676 125.68C243.676 125.68 240.683 126.506 239.383 124.248C239.295 124.097 239.236 123.929 239.21 123.753C239.184 123.578 239.193 123.398 239.234 123.226C239.501 122.181 239.805 119.43 236.155 118.045C235.95 117.97 235.767 117.841 235.623 117.669C235.48 117.498 235.38 117.291 235.335 117.067C235.21 116.036 234.828 115.058 234.228 114.233C233.628 113.407 232.831 112.764 231.918 112.368C231.661 112.292 231.433 112.131 231.268 111.91C231.103 111.688 231.01 111.417 231.001 111.136C230.893 109.842 231.273 108.555 232.057 107.553Z" fill="#501200"/>
<path d="M190.342 292.35C188.639 287.169 172.155 251.313 170.65 247.688C169.145 244.063 165.703 235.677 156.885 236.357C148.067 237.037 97.9617 237.717 92.8003 238.398C87.6389 239.08 81.6179 242.251 86.134 253.808C90.6502 265.364 102.692 293.461 104.842 297.768C106.993 302.074 110.22 306.152 117.101 306.152H179.247C186.025 306.15 193.998 303.453 190.342 292.35Z" fill="#FFB949"/>
<path d="M135.488 273.251C135.488 274.475 135.027 275.65 134.205 276.516C133.383 277.382 132.268 277.868 131.106 277.868C129.944 277.868 128.829 277.382 128.008 276.516C127.186 275.65 126.724 274.475 126.724 273.251C126.724 272.026 127.186 270.852 128.008 269.986C128.829 269.12 129.944 268.633 131.106 268.633C132.268 268.633 133.383 269.12 134.205 269.986C135.027 270.852 135.488 272.026 135.488 273.251Z" fill="white"/>
<path d="M190.665 303.585C192.503 301.401 193.049 299.776 192.77 298.077C192.658 297.388 193.45 296.89 194.111 296.904C199.155 297.021 214.244 297.375 217.608 297.228C221.317 297.058 221.237 300.542 221.156 302.409C221.076 303.461 220.611 304.439 219.859 305.137C219.107 305.835 218.128 306.198 217.127 306.15C215.168 306.15 198.18 305.816 191.797 305.688C190.784 305.668 189.991 304.384 190.665 303.585Z" fill="#FFB949"/>
<path d="M146.795 67.455C146.774 67.5652 146.721 67.666 146.644 67.7437C146.567 67.8213 146.47 67.8722 146.364 67.8893C146.259 67.9065 146.151 67.889 146.055 67.8394C145.96 67.7898 145.881 67.7104 145.829 67.612C144.998 66.053 143.435 63.4421 142.416 61.7606C142.113 61.2597 141.71 60.8342 141.236 60.5135C140.761 60.1928 140.226 59.9846 139.668 59.9033C134.602 59.1654 119.941 56.9941 111.954 55.4759C107.037 54.5418 106.782 50.9433 107.071 47.4987C107.652 40.619 109.131 31.3874 109.4 29.9713C109.803 27.8471 111.683 26.0007 115.594 26.0855C119.505 26.1703 140.477 29.1878 146.363 30.6228C151.357 31.8411 151.925 35.3909 150.982 42.6553C150.07 49.7093 147.619 63.037 146.795 67.455Z" fill="#FFB949"/>
<path d="M80.0126 80.621C80.0105 80.7406 80.0434 80.8579 80.1069 80.9571C80.1703 81.0562 80.2612 81.1324 80.3671 81.1753C80.473 81.2181 80.5889 81.2256 80.699 81.1967C80.8091 81.1677 80.9081 81.1038 80.9825 81.0135C82.2073 79.5425 84.4602 77.1058 85.7327 75.7446C86.0221 75.435 86.3718 75.1953 86.7576 75.0419C87.1435 74.8884 87.5563 74.825 87.9677 74.856C92.5375 75.214 107.847 76.2219 116.304 76.4762C121.3 76.6332 122.251 73.1604 122.638 69.7252C123.412 62.8659 123.898 53.5762 123.909 52.1412C123.93 49.9746 122.449 47.7609 118.605 46.9963C114.761 46.2318 93.652 44.6413 87.613 44.7764C82.4889 44.8863 81.2403 48.2382 80.7441 55.5513C80.2763 62.5912 80.0751 76.0257 80.0126 80.621Z" fill="#FF7449"/>
<path d="M87.795 125.204C88.535 119.368 89.6218 113.586 91.0492 107.894C91.8165 105.333 93.3006 104.171 97.0092 104.341C100.718 104.51 119.157 107.854 124.723 109.352C129.443 110.624 129.911 114.01 128.868 120.892C127.857 127.57 125.254 140.181 124.38 144.358C124.359 144.462 124.307 144.557 124.233 144.629C124.159 144.701 124.065 144.748 123.965 144.762C123.865 144.777 123.763 144.759 123.673 144.71C123.583 144.662 123.509 144.586 123.461 144.492C122.682 142.952 121.456 141.085 120.524 139.468C120.269 139.023 119.924 138.642 119.515 138.352C119.105 138.062 118.641 137.869 118.154 137.786C113.487 136.992 99.8953 134.532 92.265 132.893C87.6118 131.896 87.4493 128.472 87.795 125.204Z" fill="#FFB949"/>
<path d="M17.9618 85.9841C21.9669 83.4392 43.4856 73.4241 50.3083 70.9216C56.0939 68.7926 58.8176 71.997 62.27 79.9742C65.618 87.7111 71.21 102.832 73.0605 107.851C73.1061 107.976 73.1142 108.113 73.0838 108.243C73.0535 108.373 72.9861 108.49 72.8908 108.579C72.7954 108.667 72.6766 108.723 72.5504 108.738C72.4241 108.753 72.2964 108.728 72.1844 108.664C70.3517 107.622 67.8336 106.564 65.7938 105.556C65.232 105.277 64.6194 105.131 63.9986 105.127C63.3778 105.123 62.7635 105.261 62.1985 105.532C56.7853 108.12 40.9183 115.505 31.8427 119.38C26.3044 121.746 23.8682 118.281 22.0757 114.602C18.9972 107.945 16.3184 101.09 14.0551 94.0791C13.1685 90.8354 13.9567 88.5291 17.9618 85.9841Z" fill="#FF7449"/>
<path d="M73.8581 160.909C69.7367 163.239 50.5873 177.631 45.0549 182.531C40.3659 186.687 41.5906 190.793 46.3393 197.99C50.9464 204.973 60.4287 217.772 63.583 221.995C63.6618 222.1 63.7692 222.178 63.8909 222.217C64.0126 222.256 64.1427 222.254 64.2638 222.213C64.3848 222.172 64.491 222.093 64.568 221.986C64.645 221.879 64.6892 221.75 64.6946 221.616C64.7795 219.418 65.2012 216.603 65.4187 214.237C65.4787 213.587 65.672 212.957 65.9853 212.393C66.2986 211.829 66.7245 211.343 67.2335 210.969C72.1088 207.384 86.234 196.776 94.0297 190.53C98.7858 186.719 97.2004 182.742 95.1144 179.241C91.2524 173.054 87.0254 167.128 82.4584 161.5C80.2621 159.041 77.9794 158.579 73.8581 160.909Z" fill="#FF7449"/>
<path d="M127.635 151.591C131.268 149.683 134.537 147.086 137.277 143.93C140.229 140.599 142.5 136.664 143.948 132.37C145.396 128.076 145.99 123.513 145.694 118.967C145.218 119.64 144.585 120.537 143.757 121.721C143.647 121.877 143.482 121.982 143.299 122.011C143.116 122.04 142.93 121.992 142.781 121.876C142.632 121.76 142.532 121.587 142.505 121.394C142.477 121.201 142.523 121.005 142.633 120.848C144.053 118.807 144.913 117.585 145.358 116.974C145.45 116.799 145.586 116.654 145.751 116.554C145.916 116.454 146.103 116.403 146.293 116.407C146.483 116.411 146.669 116.47 146.829 116.577C146.99 116.685 147.12 116.836 147.204 117.015C148.24 118.557 149.793 121.52 149.86 121.644C149.946 121.814 149.967 122.014 149.917 122.2C149.868 122.387 149.752 122.546 149.594 122.645C149.43 122.725 149.245 122.74 149.07 122.689C148.896 122.638 148.745 122.523 148.644 122.366C148.632 122.345 147.899 120.964 147.112 119.606C147.207 126.504 145.463 133.292 142.077 139.197C138.691 145.102 133.799 149.886 127.96 153.006C127.793 153.021 127.628 152.972 127.492 152.869C127.357 152.767 127.261 152.616 127.222 152.445C127.183 152.274 127.203 152.094 127.278 151.938C127.354 151.781 127.481 151.658 127.635 151.591Z" fill="#501200"/>
<path d="M45.2959 154.802C45.428 154.666 45.606 154.59 45.7909 154.592C45.9758 154.594 46.1525 154.673 46.2823 154.811C46.2972 154.829 47.3536 155.961 48.4428 157.057C47.1094 152.632 46.6243 147.973 47.0156 143.349C47.407 138.726 48.6671 134.23 50.7225 130.125C52.6621 126.162 55.2903 122.618 58.4705 119.676C58.5414 119.611 58.624 119.562 58.7134 119.532C58.8028 119.501 58.8971 119.49 58.9906 119.499C59.0842 119.508 59.1751 119.536 59.258 119.583C59.3408 119.63 59.4139 119.693 59.4728 119.77C59.5318 119.848 59.5753 119.936 59.601 120.032C59.6266 120.127 59.6337 120.227 59.6219 120.325C59.6101 120.423 59.5797 120.518 59.5324 120.603C59.4851 120.689 59.4219 120.763 59.3466 120.822C59.1812 120.961 43.195 134.854 49.9685 157.297C50.2665 156.512 50.6509 155.468 51.1605 154.095C51.2275 153.914 51.3603 153.767 51.5296 153.689C51.699 153.61 51.891 153.606 52.0635 153.676C52.236 153.747 52.3748 153.887 52.4494 154.065C52.524 154.244 52.5283 154.446 52.4613 154.628C51.5911 156.983 51.025 158.388 50.7866 159.116C50.7326 159.303 50.6336 159.473 50.4991 159.608C50.3646 159.742 50.1993 159.838 50.0192 159.886C49.8391 159.933 49.6504 159.93 49.4715 159.878C49.2927 159.826 49.1297 159.726 48.9985 159.587C47.6188 158.38 45.3868 155.947 45.2914 155.846C45.2264 155.777 45.175 155.696 45.14 155.606C45.105 155.516 45.0873 155.42 45.0877 155.323C45.0881 155.226 45.1067 155.13 45.1424 155.041C45.1782 154.951 45.2303 154.87 45.2959 154.802Z" fill="#501200"/>
<path d="M165.526 61.6916C165.551 61.5985 165.559 61.501 165.548 61.4048C165.537 61.3086 165.508 61.2156 165.463 61.1314C165.417 61.0471 165.356 60.9733 165.283 60.9142C165.211 60.8551 165.127 60.812 165.038 60.7873C164.86 60.7403 164.672 60.7674 164.512 60.863C164.352 60.9586 164.233 61.1153 164.18 61.3007C161.09 70.6171 154.793 72.6047 150.43 71.9845C150.34 71.9716 150.247 71.9777 150.159 72.0024C150.07 72.0271 149.987 72.07 149.914 72.1285C149.841 72.187 149.78 72.2601 149.734 72.3436C149.688 72.427 149.658 72.5192 149.646 72.6149C149.634 72.7106 149.639 72.8078 149.663 72.9011C149.686 72.9944 149.727 73.082 149.783 73.1587C149.838 73.2355 149.907 73.3 149.987 73.3485C150.066 73.397 150.153 73.4286 150.244 73.4415C150.927 73.5388 161.412 75.4888 165.526 61.6916Z" fill="#501200"/>
<path d="M166.676 74.3207C166.737 74.2481 166.784 74.163 166.813 74.0708C166.842 73.9785 166.853 73.881 166.846 73.7841C166.838 73.6872 166.812 73.5929 166.769 73.507C166.725 73.4212 166.666 73.3454 166.594 73.2845C166.453 73.1589 166.27 73.0975 166.086 73.1137C165.902 73.1299 165.731 73.2224 165.612 73.3709C163.832 75.4123 161.473 76.7936 158.888 77.3093C156.303 77.825 153.629 77.4475 151.263 76.233C151.095 76.1596 150.906 76.1584 150.737 76.2298C150.568 76.3012 150.432 76.4395 150.359 76.615C150.285 76.7906 150.28 76.9895 150.343 77.1692C150.407 77.349 150.535 77.4953 150.7 77.5769C153.339 78.9285 156.322 79.3418 159.203 78.7546C162.084 78.1675 164.706 76.6117 166.676 74.3207Z" fill="#501200"/>
<path d="M116.243 98.2993C116.413 98.3216 116.584 98.2778 116.724 98.1762C116.865 98.0747 116.965 97.9225 117.006 97.7482C117.557 95.541 118.117 93.3362 118.686 91.1338C118.719 91.0383 118.732 90.9366 118.726 90.8352C118.72 90.7338 118.694 90.6348 118.65 90.5445C118.605 90.4543 118.543 90.3747 118.468 90.3109C118.393 90.247 118.307 90.2002 118.213 90.1735C118.12 90.1468 118.023 90.1408 117.928 90.1557C117.832 90.1707 117.741 90.2064 117.659 90.2605C117.578 90.3146 117.507 90.3859 117.453 90.4701C117.399 90.5542 117.362 90.6492 117.345 90.7492C117.285 90.9768 115.904 96.3588 115.659 97.3919C115.635 97.4923 115.632 97.5969 115.649 97.6988C115.666 97.8008 115.703 97.8977 115.759 97.9834C115.814 98.0691 115.885 98.1415 115.969 98.196C116.053 98.2504 116.146 98.2856 116.243 98.2993Z" fill="#501200"/>
<path d="M111.256 96.4859C111.354 96.4989 111.453 96.4895 111.547 96.4583C111.64 96.4271 111.726 96.3748 111.799 96.3051C111.872 96.2354 111.929 96.1499 111.967 96.0546C112.006 95.9592 112.024 95.8562 112.021 95.7528V86.8823C112.014 86.6854 111.935 86.4991 111.8 86.3626C111.665 86.2261 111.485 86.1501 111.298 86.1506C111.207 86.1516 111.118 86.1717 111.035 86.2096C110.952 86.2474 110.877 86.3024 110.814 86.3713C110.751 86.4402 110.702 86.5215 110.67 86.6106C110.637 86.6997 110.622 86.7947 110.625 86.8901V95.759C110.63 95.9397 110.697 96.1124 110.813 96.2457C110.929 96.3791 111.086 96.4643 111.256 96.4859Z" fill="#501200"/>
<path d="M106.757 97.4326C106.872 97.446 106.988 97.4293 107.095 97.384C107.202 97.3386 107.296 97.2661 107.37 97.1727C107.444 97.0794 107.495 96.9682 107.518 96.8492C107.541 96.7301 107.535 96.6069 107.502 96.4906L105.538 89.7647C105.484 89.5773 105.361 89.4204 105.197 89.3286C105.032 89.2367 104.84 89.2174 104.662 89.2748C104.484 89.3323 104.336 89.4619 104.248 89.635C104.161 89.8081 104.143 90.0106 104.197 90.198L106.161 96.9223C106.202 97.0595 106.281 97.181 106.387 97.2717C106.493 97.3624 106.621 97.4183 106.757 97.4326Z" fill="#501200"/>
<path d="M94.6656 15.9481C94.7826 15.9481 94.8977 15.9171 95.0003 15.8579C95.103 15.7987 95.1898 15.7132 95.2529 15.6094C95.316 15.5056 95.3533 15.3867 95.3613 15.2637C95.3693 15.1407 95.3478 15.0175 95.2988 14.9056L92.3948 8.27705C92.3564 8.18942 92.3019 8.11063 92.2346 8.04518C92.1672 7.97973 92.0883 7.9289 92.0023 7.89559C91.9163 7.86228 91.8249 7.84714 91.7334 7.85103C91.6419 7.85493 91.5519 7.87779 91.4688 7.9183C91.3856 7.95881 91.3108 8.01619 91.2487 8.08715C91.1866 8.15811 91.1384 8.24127 91.1068 8.33188C91.0751 8.42249 91.0608 8.51877 91.0645 8.61523C91.0682 8.71169 91.0899 8.80643 91.1283 8.89406L94.0308 15.521C94.0869 15.6486 94.1764 15.7567 94.2889 15.8323C94.4014 15.908 94.5321 15.9482 94.6656 15.9481Z" fill="#501200"/>
<path d="M90.3104 17.9875C90.4407 17.987 90.5683 17.9482 90.6787 17.8753C90.7892 17.8024 90.8781 17.6985 90.9354 17.5752C90.9928 17.452 91.0162 17.3142 91.0032 17.1776C90.9902 17.041 90.9412 16.911 90.8618 16.8022L85.6199 9.66496C85.5644 9.58717 85.4947 9.5218 85.415 9.47262C85.3353 9.42345 85.247 9.39146 85.1555 9.37851C85.0639 9.36556 84.9708 9.37191 84.8816 9.39719C84.7924 9.42248 84.7089 9.46619 84.6358 9.52578C84.5628 9.58538 84.5017 9.65968 84.4561 9.74436C84.4106 9.82904 84.3814 9.92242 84.3704 10.0191C84.3594 10.1157 84.3667 10.2137 84.3919 10.3074C84.4171 10.401 84.4598 10.4884 84.5173 10.5646L89.7591 17.7034C89.8243 17.792 89.9079 17.8637 90.0035 17.9129C90.099 17.9622 90.204 17.9877 90.3104 17.9875Z" fill="#501200"/>
<path d="M87.0029 20.6219C87.1557 20.6224 87.3045 20.57 87.4263 20.4726C87.5481 20.3753 87.6362 20.2385 87.677 20.0833C87.7178 19.9281 87.709 19.7631 87.6521 19.6136C87.5952 19.4641 87.4933 19.3385 87.362 19.256L81.551 15.6026C81.394 15.5207 81.2134 15.5041 81.0453 15.5561C80.8772 15.608 80.7338 15.7248 80.6436 15.8831C80.5535 16.0414 80.5232 16.2297 80.5588 16.4104C80.5944 16.5912 80.6933 16.7512 80.8358 16.8586C87.1429 20.8323 86.7287 20.6219 87.0029 20.6219Z" fill="#501200"/>
<path d="M46.3586 46.6416H48.5012L48.6502 40.6018C48.6549 40.407 48.7329 40.2221 48.867 40.0878C49.0012 39.9535 49.1804 39.8809 49.3654 39.8859C49.5503 39.8909 49.7258 39.9731 49.8532 40.1145C49.9806 40.2558 50.0496 40.4447 50.0448 40.6395L49.8958 46.6416H52.0012C52.1861 46.6416 52.3635 46.719 52.4943 46.8568C52.625 46.9946 52.6985 47.1815 52.6985 47.3764C52.6985 47.5713 52.625 47.7582 52.4943 47.8959C52.3635 48.0337 52.1861 48.1112 52.0012 48.1112H49.8586L49.7096 54.1509C49.698 54.3409 49.617 54.5188 49.4837 54.6473C49.3503 54.7757 49.1749 54.8448 48.9943 54.8399C48.8137 54.835 48.6418 54.7566 48.5149 54.6211C48.3879 54.4857 48.3157 54.3036 48.3134 54.1133L48.4624 48.1112H46.3541C46.1691 48.1112 45.9918 48.0337 45.861 47.8959C45.7302 47.7582 45.6567 47.5713 45.6567 47.3764C45.6567 47.1815 45.7302 46.9946 45.861 46.8568C45.9918 46.719 46.1691 46.6416 46.3541 46.6416H46.3586Z" fill="#FFB949"/>
<path d="M165.794 26.8846H167.999V21.162C167.995 21.0625 168.01 20.9632 168.043 20.8699C168.076 20.7767 168.126 20.6915 168.192 20.6195C168.257 20.5475 168.335 20.4902 168.422 20.451C168.509 20.4119 168.603 20.3917 168.697 20.3917C168.792 20.3917 168.885 20.4119 168.972 20.451C169.059 20.4902 169.137 20.5475 169.203 20.6195C169.268 20.6915 169.318 20.7767 169.352 20.8699C169.385 20.9632 169.4 21.0625 169.395 21.162V26.8846H171.761C171.856 26.88 171.95 26.8957 172.038 26.9306C172.127 26.9654 172.208 27.0189 172.276 27.0876C172.344 27.1564 172.399 27.239 172.436 27.3306C172.473 27.4221 172.492 27.5206 172.492 27.6202C172.492 27.7197 172.473 27.8183 172.436 27.9098C172.399 28.0013 172.344 28.084 172.276 28.1527C172.208 28.2215 172.127 28.2749 172.038 28.3098C171.95 28.3447 171.856 28.3603 171.761 28.3557H169.395V33.0657C169.387 33.2549 169.31 33.4335 169.18 33.5643C169.05 33.6951 168.877 33.7681 168.697 33.7681C168.517 33.7681 168.345 33.6951 168.215 33.5643C168.085 33.4335 168.007 33.2549 167.999 33.0657V28.3557H165.794C165.614 28.347 165.445 28.2657 165.321 28.1287C165.197 27.9917 165.127 27.8096 165.127 27.6202C165.127 27.4308 165.197 27.2487 165.321 27.1117C165.445 26.9747 165.614 26.8934 165.794 26.8846Z" fill="#FFB949"/>
<path d="M139.135 48.5334C139.537 48.5334 139.738 48.5334 142.447 44.4828C142.5 44.4039 142.537 44.3147 142.557 44.2205C142.577 44.1263 142.58 44.0288 142.564 43.9337C142.548 43.8386 142.515 43.7477 142.466 43.6661C142.417 43.5845 142.353 43.514 142.278 43.4584C142.203 43.4028 142.119 43.3634 142.029 43.3423C141.94 43.3211 141.847 43.3188 141.757 43.3353C141.667 43.3519 141.58 43.387 141.503 43.4387C141.426 43.4904 141.359 43.5576 141.306 43.6366C140.65 44.6147 139.895 45.7074 139.369 46.4234C138.897 44.8785 138.053 41.7903 137.31 38.936C137.293 38.8348 137.257 38.7383 137.202 38.6529C137.148 38.5674 137.078 38.4948 136.995 38.4398C136.913 38.3848 136.821 38.3485 136.724 38.3333C136.628 38.3182 136.529 38.3244 136.435 38.3517C136.341 38.379 136.254 38.4267 136.178 38.4918C136.103 38.5569 136.041 38.6379 135.997 38.7296C135.953 38.8213 135.928 38.9217 135.923 39.0243C135.918 39.1269 135.934 39.2295 135.969 39.3254C138.36 48.5334 138.478 48.5334 139.135 48.5334Z" fill="white"/>
<path d="M132.984 41.9662C133.025 41.8798 133.05 41.7858 133.056 41.6895C133.062 41.5931 133.051 41.4965 133.022 41.4049C132.993 41.3133 132.947 41.2287 132.887 41.1559C132.827 41.083 132.753 41.0233 132.671 40.9802C132.589 40.9371 132.5 40.9115 132.409 40.9047C132.317 40.898 132.226 40.9102 132.139 40.9409C132.052 40.9715 131.972 41.0198 131.902 41.0831C131.833 41.1465 131.777 41.2235 131.736 41.3099C131.25 42.3351 130.711 43.4357 130.299 44.2442C129.799 42.6287 128.972 39.8106 128.23 37.2185C128.203 37.1257 128.16 37.0393 128.101 36.9643C128.043 36.8893 127.972 36.8271 127.891 36.7812C127.81 36.7354 127.721 36.7068 127.629 36.6971C127.538 36.6874 127.445 36.6968 127.357 36.7247C127.269 36.7527 127.187 36.7986 127.116 36.8599C127.045 36.9212 126.986 36.9967 126.942 37.0821C126.899 37.1674 126.872 37.261 126.863 37.3574C126.853 37.4538 126.862 37.5512 126.889 37.644C129.422 46.4988 129.463 46.5097 129.969 46.6416C130.603 46.8096 130.693 46.7955 132.984 41.9662Z" fill="white"/>
<path d="M122.253 44.7623C122.693 44.7623 123.128 44.3353 124.545 40.4574C124.603 40.2772 124.592 40.0802 124.516 39.9079C124.439 39.7355 124.302 39.6011 124.134 39.5329C123.965 39.4647 123.778 39.4679 123.611 39.5419C123.445 39.6159 123.312 39.755 123.241 39.9299C122.912 40.8326 122.509 41.85 122.198 42.5659C121.553 41.0744 120.401 38.1354 119.383 35.4193C119.35 35.3295 119.299 35.2475 119.236 35.1782C119.172 35.1088 119.096 35.0533 119.012 35.0149C118.928 34.9765 118.838 34.9559 118.746 34.9543C118.654 34.9527 118.563 34.9701 118.478 35.0056C118.393 35.041 118.315 35.0938 118.249 35.1609C118.183 35.2281 118.131 35.3082 118.094 35.3968C118.058 35.4853 118.038 35.5806 118.037 35.6771C118.035 35.7736 118.052 35.8695 118.085 35.9593C121.387 44.7796 121.575 44.7623 122.253 44.7623Z" fill="white"/>
<path d="M116.095 66.7957C116.259 66.7642 116.407 66.6718 116.512 66.5353C116.617 66.3987 116.672 66.227 116.667 66.0513C116.662 65.8756 116.598 65.7076 116.485 65.5777C116.373 65.4478 116.22 65.3647 116.055 65.3434C115.27 65.2331 114.519 64.9333 113.862 64.4674C113.205 64.0014 112.659 63.3819 112.267 62.6571C113.428 61.2246 114.043 59.389 113.992 57.506C113.496 52.639 108.254 54.2592 108.898 58.3491C109.107 59.8589 109.634 61.3003 110.44 62.5676C108.415 64.6259 104.967 63.4343 104.033 62.5676C104.999 61.2604 105.511 59.6443 105.484 57.988C105.152 51.5886 98.7795 55.0301 100.567 59.6836C100.943 60.7349 101.471 61.7189 102.132 62.6006C100.116 64.8457 97.2642 63.3636 96.3016 62.5221C97.2308 60.7295 97.5683 58.6624 97.2612 56.6456C96.245 52.3956 90.802 54.9877 92.5409 59.4449C93.016 60.6561 93.6865 61.7716 94.5226 62.7419C94.1442 63.365 93.6194 63.8744 92.9991 64.2207C92.3788 64.5671 91.6841 64.7386 90.9823 64.7185C90.7974 64.7108 90.6171 64.7809 90.4812 64.9132C90.3452 65.0456 90.2647 65.2294 90.2574 65.4243C90.2501 65.6191 90.3166 65.8091 90.4422 65.9523C90.5678 66.0956 90.7422 66.1804 90.9272 66.1881C91.8286 66.2181 92.7229 66.011 93.5293 65.5856C94.3357 65.1602 95.0289 64.5298 95.5462 63.7514C96.5715 64.7643 97.9293 65.3195 99.3346 65.3004C100.74 65.2814 102.084 64.6897 103.084 63.6494C104.244 64.6408 105.689 65.1884 107.183 65.203C108.677 65.2175 110.131 64.6981 111.309 63.7294C111.813 64.6089 112.512 65.347 113.345 65.8808C114.178 66.4147 115.122 66.7285 116.095 66.7957ZM112.601 57.6112C112.575 58.9864 112.155 60.3211 111.394 61.4388C110.752 60.511 110.37 59.4123 110.291 58.2674C110.29 55.2373 112.601 55.9171 112.601 57.619V57.6112ZM104.085 57.9675C104.096 59.2225 103.741 60.4507 103.068 61.4859C102.566 60.8192 102.172 60.0703 101.901 59.2691C100.955 56.3724 104.002 54.7443 104.085 57.9675ZM95.95 57.1621C96.1197 58.6223 95.8788 60.1028 95.2571 61.42C94.6885 60.6632 94.2152 59.832 93.8491 58.9472C92.8105 56.6393 95.4717 55.151 95.9559 57.1621H95.95Z" fill="white"/>
<path d="M106.512 132.17C106.661 132.17 106.804 132.118 106.92 132.02C107.036 131.923 107.117 131.787 107.15 131.635L108.071 127.456C108.091 127.367 108.093 127.276 108.079 127.186C108.065 127.096 108.035 127.011 107.989 126.933C107.944 126.856 107.884 126.789 107.814 126.737C107.744 126.684 107.665 126.646 107.581 126.625C107.497 126.605 107.41 126.602 107.325 126.616C107.24 126.631 107.158 126.663 107.085 126.711C107.012 126.759 106.948 126.822 106.898 126.896C106.848 126.97 106.812 127.053 106.793 127.142L105.872 131.321C105.849 131.423 105.849 131.528 105.871 131.63C105.892 131.732 105.936 131.827 105.997 131.909C106.059 131.991 106.137 132.057 106.226 132.102C106.316 132.147 106.413 132.171 106.512 132.17Z" fill="#501200"/>
<path d="M109.995 116.353C110.143 116.353 110.287 116.3 110.403 116.203C110.519 116.105 110.601 115.97 110.634 115.817L111.548 111.663C111.587 111.484 111.558 111.297 111.466 111.141C111.374 110.985 111.227 110.874 111.057 110.833C110.888 110.791 110.71 110.822 110.562 110.919C110.414 111.016 110.309 111.17 110.269 111.349L109.356 115.503C109.333 115.605 109.332 115.71 109.354 115.812C109.376 115.914 109.419 116.009 109.48 116.091C109.542 116.173 109.62 116.239 109.709 116.284C109.798 116.329 109.896 116.353 109.995 116.353Z" fill="white"/>
<path d="M103.145 120.504C103.308 120.504 103.464 120.441 103.585 120.326C103.706 120.211 103.782 120.053 103.798 119.883C103.815 119.713 103.771 119.542 103.674 119.404C103.578 119.266 103.437 119.171 103.278 119.136L98.9121 118.18C98.7418 118.143 98.5643 118.178 98.4188 118.278C98.2732 118.379 98.1714 118.536 98.1359 118.716C98.1003 118.895 98.1338 119.082 98.2291 119.235C98.3244 119.389 98.4736 119.496 98.6439 119.534C102.896 120.466 102.995 120.504 103.145 120.504Z" fill="white"/>
<path d="M118.239 123.809C118.402 123.809 118.558 123.745 118.679 123.631C118.8 123.516 118.876 123.358 118.892 123.188C118.909 123.018 118.864 122.847 118.768 122.709C118.672 122.571 118.531 122.476 118.372 122.441L114.519 121.597C114.35 121.565 114.177 121.604 114.036 121.705C113.895 121.806 113.796 121.961 113.761 122.137C113.726 122.313 113.758 122.497 113.849 122.649C113.941 122.801 114.084 122.909 114.25 122.951C118.051 123.784 118.089 123.809 118.239 123.809Z" fill="#501200"/>
<path d="M114.598 130.892C114.715 130.892 114.829 130.859 114.93 130.797C115.03 130.734 115.113 130.645 115.17 130.538C115.227 130.431 115.256 130.309 115.254 130.187C115.251 130.064 115.218 129.944 115.157 129.839L112.848 125.887C112.756 125.731 112.61 125.62 112.441 125.577C112.271 125.535 112.093 125.565 111.945 125.661C111.797 125.757 111.691 125.912 111.65 126.09C111.61 126.269 111.639 126.457 111.73 126.613L114.04 130.563C114.098 130.663 114.18 130.747 114.278 130.804C114.376 130.862 114.486 130.892 114.598 130.892Z" fill="#501200"/>
<path d="M105.56 116.353C105.677 116.352 105.791 116.319 105.892 116.257C105.992 116.195 106.075 116.105 106.132 115.998C106.189 115.891 106.218 115.77 106.215 115.647C106.213 115.524 106.18 115.404 106.119 115.299L104.114 111.867C104.022 111.711 103.876 111.6 103.707 111.557C103.537 111.515 103.359 111.545 103.211 111.641C103.062 111.737 102.957 111.892 102.916 112.07C102.876 112.248 102.905 112.436 102.996 112.593L105.002 116.023C105.06 116.124 105.142 116.207 105.24 116.265C105.338 116.323 105.448 116.353 105.56 116.353Z" fill="white"/>
<path d="M99.6375 127.17C99.8908 127.17 99.5838 127.308 104.107 124.557C104.258 124.466 104.368 124.315 104.413 124.137C104.457 123.96 104.434 123.772 104.347 123.613C104.259 123.454 104.116 123.339 103.948 123.292C103.78 123.244 103.601 123.269 103.45 123.361L99.3141 125.881C99.1906 125.958 99.0943 126.075 99.0397 126.214C98.9852 126.354 98.9755 126.509 99.0122 126.655C99.0488 126.801 99.1297 126.93 99.2426 127.023C99.3555 127.116 99.4942 127.168 99.6375 127.17Z" fill="white"/>
<path d="M113.444 118.75C113.694 118.75 113.474 118.838 117.552 116.354C117.627 116.309 117.692 116.248 117.744 116.176C117.797 116.104 117.835 116.022 117.857 115.934C117.879 115.847 117.885 115.755 117.874 115.665C117.862 115.575 117.834 115.488 117.791 115.41C117.748 115.331 117.691 115.263 117.622 115.207C117.554 115.152 117.476 115.112 117.393 115.088C117.309 115.065 117.223 115.059 117.137 115.071C117.052 115.083 116.969 115.112 116.895 115.158L113.116 117.461C112.991 117.537 112.894 117.655 112.839 117.795C112.783 117.936 112.774 118.091 112.811 118.238C112.848 118.385 112.931 118.515 113.045 118.607C113.16 118.7 113.3 118.75 113.444 118.75Z" fill="#501200"/>
<path d="M89.0204 153.56H91.4774L91.5489 148.189C91.5515 147.994 91.6274 147.808 91.76 147.673C91.8926 147.537 92.071 147.462 92.2559 147.465C92.4409 147.467 92.6172 147.547 92.7462 147.687C92.8752 147.827 92.9462 148.015 92.9436 148.21L92.8735 153.56H95.271C95.4505 153.569 95.62 153.65 95.7441 153.787C95.8682 153.924 95.9375 154.106 95.9375 154.296C95.9375 154.485 95.8682 154.667 95.7441 154.804C95.62 154.941 95.4505 155.022 95.271 155.031H92.8542L92.7827 160.404C92.7722 160.593 92.6929 160.771 92.5611 160.9C92.4293 161.029 92.2553 161.1 92.0753 161.097C91.8953 161.095 91.7233 161.019 91.5949 160.886C91.4666 160.753 91.3919 160.573 91.3865 160.383L91.458 155.031H89.0204C88.8408 155.022 88.6714 154.941 88.5472 154.804C88.4231 154.667 88.3539 154.485 88.3539 154.296C88.3539 154.106 88.4231 153.924 88.5472 153.787C88.6714 153.65 88.8408 153.569 89.0204 153.56Z" fill="#FFB949"/>
<path d="M51.816 188.221C52.2347 188.221 50.475 189.262 76.331 169.959C76.4821 169.846 76.5847 169.675 76.6161 169.483C76.6476 169.291 76.6053 169.094 76.4986 168.934C76.3919 168.775 76.2295 168.667 76.0472 168.634C75.8649 168.601 75.6775 168.645 75.5264 168.758C75.3774 168.872 59.8814 180.391 51.4063 186.891C51.2878 186.983 51.1998 187.112 51.1548 187.259C51.1097 187.406 51.1099 187.565 51.1552 187.712C51.2006 187.859 51.2889 187.988 51.4075 188.079C51.5261 188.171 51.6691 188.22 51.816 188.221Z" fill="white"/>
<path d="M56.8967 195.812C57.7267 195.812 57.9814 194.281 73.4715 182.753C73.6226 182.64 73.7251 182.469 73.7564 182.276C73.7877 182.084 73.7453 181.887 73.6384 181.727C73.5315 181.568 73.3689 181.46 73.1864 181.427C73.004 181.394 72.8165 181.439 72.6654 181.552C68.0464 184.993 61.477 190.03 56.4453 194.515C56.3365 194.613 56.2588 194.743 56.2226 194.889C56.1863 195.034 56.1932 195.188 56.2424 195.329C56.2916 195.47 56.3807 195.592 56.4977 195.679C56.6146 195.765 56.7539 195.812 56.8967 195.812Z" fill="white"/>
<path d="M76.066 180.679C76.4638 180.679 76.282 180.605 80.2961 177.787C80.4416 177.675 80.5403 177.508 80.5716 177.321C80.603 177.134 80.5645 176.941 80.4643 176.783C80.3641 176.625 80.2099 176.514 80.0339 176.473C79.8579 176.433 79.6737 176.465 79.5198 176.564C79.5049 176.575 77.9851 177.647 75.6681 179.34C75.5457 179.429 75.4536 179.557 75.4052 179.705C75.3568 179.853 75.3547 180.014 75.3991 180.163C75.4436 180.313 75.5323 180.444 75.6522 180.536C75.7722 180.629 75.9172 180.679 76.066 180.679Z" fill="white"/>
<path d="M62.9183 202.269C63.4532 202.269 63.1403 202.07 68.8261 197.47C68.9015 197.412 68.9651 197.339 69.0133 197.255C69.0614 197.171 69.0931 197.078 69.1065 196.981C69.1198 196.884 69.1145 196.785 69.091 196.69C69.0674 196.595 69.0261 196.506 68.9693 196.428C68.9126 196.35 68.8416 196.285 68.7606 196.236C68.6796 196.188 68.5902 196.157 68.4977 196.146C68.4051 196.134 68.3114 196.142 68.2219 196.17C68.1325 196.197 68.0491 196.243 67.9768 196.305C66.1031 197.813 64.2649 199.37 62.4638 200.974C62.3555 201.072 62.2782 201.203 62.2423 201.348C62.2065 201.494 62.2138 201.647 62.2633 201.788C62.3128 201.929 62.4021 202.051 62.5192 202.137C62.6363 202.223 62.7756 202.269 62.9183 202.269Z" fill="white"/>
<path d="M71.84 194.903C71.9886 194.903 72.1332 194.853 72.2528 194.76C76.7711 191.27 81.3851 187.919 86.0889 184.712C86.2322 184.602 86.3305 184.439 86.3637 184.256C86.397 184.072 86.3627 183.882 86.2678 183.725C86.1729 183.567 86.0246 183.453 85.853 183.406C85.6814 183.36 85.4994 183.384 85.3439 183.473C85.2769 183.519 78.5778 188.045 71.4318 193.581C71.3165 193.674 71.2313 193.802 71.1881 193.947C71.1449 194.093 71.1458 194.249 71.1907 194.395C71.2355 194.54 71.3221 194.667 71.4384 194.758C71.5548 194.849 71.6951 194.9 71.84 194.903Z" fill="white"/>
<path d="M53.1317 91.0977C53.1317 91.5894 52.9463 92.061 52.6163 92.4088C52.2863 92.7565 51.8387 92.9518 51.372 92.9518C50.9053 92.9518 50.4578 92.7565 50.1278 92.4088C49.7977 92.061 49.6123 91.5894 49.6123 91.0977C49.6123 90.6059 49.7977 90.1343 50.1278 89.7866C50.4578 89.4389 50.9053 89.2435 51.372 89.2435C51.8387 89.2435 52.2863 89.4389 52.6163 89.7866C52.9463 90.1343 53.1317 90.6059 53.1317 91.0977Z" fill="white"/>
<path d="M42.5526 95.7167C42.5526 96.2084 42.3672 96.68 42.0372 97.0278C41.7072 97.3755 41.2596 97.5708 40.7929 97.5708C40.3262 97.5708 39.8786 97.3755 39.5486 97.0278C39.2186 96.68 39.0332 96.2084 39.0332 95.7167C39.0332 95.2249 39.2186 94.7533 39.5486 94.4056C39.8786 94.0578 40.3262 93.8625 40.7929 93.8625C41.2596 93.8625 41.7072 94.0578 42.0372 94.4056C42.3672 94.7533 42.5526 95.2249 42.5526 95.7167Z" fill="white"/>
<path d="M32.9442 100.175C32.9442 100.667 32.7588 101.139 32.4288 101.487C32.0988 101.834 31.6512 102.03 31.1845 102.03C30.7178 102.03 30.2702 101.834 29.9402 101.487C29.6102 101.139 29.4248 100.667 29.4248 100.175C29.4248 99.6837 29.6102 99.2121 29.9402 98.8644C30.2702 98.5166 30.7178 98.3213 31.1845 98.3213C31.6512 98.3213 32.0988 98.5166 32.4288 98.8644C32.7588 99.2121 32.9442 99.6837 32.9442 100.175Z" fill="white"/>
</svg>
