<svg width="22" height="22" viewBox="0 0 22 22" fill="none" xmlns="http://www.w3.org/2000/svg">
<path d="M17.151 17.875C16.3901 19.0116 15.5835 20.1208 14.3551 20.1391C13.1268 20.1666 12.7326 19.415 11.3393 19.415C9.9368 19.415 9.50597 20.1208 8.34177 20.1666C7.14094 20.2125 6.23344 18.9566 5.46344 17.8475C3.89594 15.5833 2.6951 11.4125 4.30844 8.60748C5.10594 7.21415 6.53594 6.33415 8.0851 6.30665C9.25847 6.28831 10.3768 7.10415 11.101 7.10415C11.816 7.10415 13.1726 6.12331 14.5935 6.26998C15.1893 6.29748 16.8576 6.50831 17.9301 8.08498C17.8476 8.13998 15.941 9.25831 15.9593 11.5775C15.9868 14.3458 18.3885 15.2716 18.416 15.2808C18.3885 15.345 18.031 16.6008 17.151 17.875ZM11.9168 3.20831C12.586 2.44748 13.6951 1.86998 14.6118 1.83331C14.731 2.90581 14.3001 3.98748 13.6585 4.75748C13.026 5.53665 11.981 6.14165 10.9543 6.05915C10.8168 5.00498 11.3301 3.90498 11.9168 3.20831Z" fill="#1E2022"/>
</svg>
