<svg width="96" height="65" viewBox="0 0 96 65" fill="none" xmlns="http://www.w3.org/2000/svg">
<g clip-path="url(#clip0_156_3138)">
<path d="M72.5854 49.6364C85.5169 49.6364 96 39.054 96 26C96 12.946 85.5169 2.36363 72.5854 2.36363C59.6538 2.36363 49.1707 12.946 49.1707 26C49.1707 39.054 59.6538 49.6364 72.5854 49.6364Z" fill="#1C5387"/>
<path d="M9.36585 18.9091C14.5385 18.9091 18.7317 14.6761 18.7317 9.45455C18.7317 4.23294 14.5385 0 9.36585 0C4.19323 0 0 4.23294 0 9.45455C0 14.6761 4.19323 18.9091 9.36585 18.9091Z" fill="#1C5387"/>
<path d="M23.4146 65C31.8201 65 38.6342 58.1215 38.6342 49.6364C38.6342 41.1513 31.8201 34.2727 23.4146 34.2727C15.0091 34.2727 8.19513 41.1513 8.19513 49.6364C8.19513 58.1215 15.0091 65 23.4146 65Z" fill="#1C5387"/>
</g>
<defs>
<clipPath id="clip0_156_3138">
<rect width="96" height="65" fill="white"/>
</clipPath>
</defs>
</svg>
