<svg width="22" height="22" viewBox="0 0 22 22" fill="none" xmlns="http://www.w3.org/2000/svg">
<g clip-path="url(#clip0_53_513)">
<path d="M21.7381 11.2058C21.7381 10.3045 21.6649 9.64674 21.5067 8.96466H11.2144V13.0328H17.2557C17.1339 14.0438 16.4762 15.5663 15.0146 16.5894L14.9941 16.7256L18.2483 19.2466L18.4738 19.2691C20.5444 17.3568 21.7381 14.5432 21.7381 11.2058Z" fill="#4285F4"/>
<path d="M11.2143 21.9244C14.1741 21.9244 16.6588 20.95 18.4737 19.2691L15.0145 16.5894C14.0889 17.235 12.8464 17.6857 11.2143 17.6857C8.31545 17.6857 5.85506 15.7734 4.978 13.1303L4.84944 13.1412L1.46564 15.76L1.42139 15.883C3.22404 19.464 6.92684 21.9244 11.2143 21.9244Z" fill="#34A853"/>
<path d="M4.97784 13.1303C4.74642 12.4482 4.61249 11.7174 4.61249 10.9622C4.61249 10.207 4.74642 9.47621 4.96566 8.79413L4.95953 8.64886L1.53333 5.98804L1.42123 6.04136C0.678266 7.52737 0.251953 9.19609 0.251953 10.9622C0.251953 12.7284 0.678266 14.397 1.42123 15.883L4.97784 13.1303Z" fill="#FBBC05"/>
<path d="M11.2143 4.23869C13.2728 4.23869 14.6613 5.12785 15.453 5.87089L18.5468 2.85018C16.6467 1.08405 14.1741 0 11.2143 0C6.92684 0 3.22404 2.46039 1.42139 6.04135L4.96582 8.79412C5.85506 6.15102 8.31545 4.23869 11.2143 4.23869Z" fill="#EB4335"/>
</g>
<defs>
<clipPath id="clip0_53_513">
<rect width="22" height="22" fill="white"/>
</clipPath>
</defs>
</svg>
