  <svg version="1.1" id="Layer_1" xmlns="http://www.w3.org/2000/svg" xmlns:xlink="http://www.w3.org/1999/xlink" x="0px" y="0px" viewBox="0 0 512 512" enable-background="new 0 0 512 512" xml:space="preserve"> <g id="moon_1"> <path d="M149.336,98.484c0-31.781,5.789-62.211,16.375-90.289C68.883,44.695,0,138.211,0,247.812 c0,141.398,114.617,255.992,256,255.992c109.594,0,203.125-68.875,239.625-165.703c-28.094,10.578-58.5,16.391-90.281,16.391 C263.945,354.492,149.336,239.867,149.336,98.484z M441.344,391.742c-14.344,18.469-31.312,34.625-50.406,48.094 c-39.625,27.906-86.281,42.656-134.938,42.656c-31.688,0-62.422-6.219-91.336-18.438c-27.938-11.812-53.039-28.75-74.602-50.312 c-21.555-21.562-38.477-46.656-50.297-74.594c-12.227-28.906-18.43-59.656-18.43-91.336c0-48.648,14.75-95.312,42.648-134.938 c13.453-19.102,29.633-36.062,48.086-50.414c6.586-5.125,13.422-9.883,20.469-14.25C129.523,64.695,128,81.492,128,98.484 c0,37.43,7.336,73.75,21.805,107.953c13.969,33.031,33.961,62.68,59.422,88.148c25.469,25.469,55.125,45.453,88.148,59.438 c34.203,14.453,70.531,21.781,107.969,21.781c16.969,0,33.781-1.5,50.266-4.531C451.234,378.336,446.469,385.164,441.344,391.742z"></path> <path d="M384,130.484c5.891,0,10.656-4.781,10.656-10.672s-4.766-10.664-10.656-10.664s-10.656,4.773-10.656,10.664 S378.109,130.484,384,130.484z"></path> <path d="M309.344,237.148c0,5.891,4.766,10.664,10.656,10.664s10.656-4.773,10.656-10.664s-4.766-10.664-10.656-10.664 S309.344,231.258,309.344,237.148z"></path> <path d="M501.344,77.148c-5.906,0-10.688,4.773-10.688,10.664s4.781,10.672,10.688,10.672c5.875,0,10.656-4.781,10.656-10.672 S507.219,77.148,501.344,77.148z"></path> <path d="M309.344,34.484c5.875,0,10.656-4.781,10.656-10.672s-4.781-10.664-10.656-10.664c-5.906,0-10.688,4.773-10.688,10.664 S303.438,34.484,309.344,34.484z"></path> <path d="M234.664,141.148h10.672v21.336c0,5.891,4.773,10.664,10.664,10.664s10.664-4.773,10.664-10.664v-21.336h10.68 c5.875,0,10.656-4.773,10.656-10.664c0-5.898-4.781-10.672-10.656-10.672h-10.68V98.484c0-5.898-4.773-10.672-10.664-10.672 s-10.664,4.773-10.664,10.672v21.328h-10.672c-5.891,0-10.664,4.773-10.664,10.672C224,136.375,228.773,141.148,234.664,141.148z"></path> <path d="M416,258.484h10.656v21.32c0,5.906,4.781,10.688,10.688,10.688c5.875,0,10.656-4.781,10.656-10.688v-21.32h10.656 c5.906,0,10.688-4.781,10.688-10.672s-4.781-10.664-10.688-10.664H448v-21.336c0-5.891-4.781-10.664-10.656-10.664 c-5.906,0-10.688,4.773-10.688,10.664v21.336H416c-5.891,0-10.656,4.773-10.656,10.664S410.109,258.484,416,258.484z"></path> </g> </svg> 