  <svg version="1.1" id="Layer_1" xmlns="http://www.w3.org/2000/svg" xmlns:xlink="http://www.w3.org/1999/xlink" x="0px" y="0px" viewBox="0 0 512 512" enable-background="new 0 0 512 512" xml:space="preserve"> <g id="sun"> <path d="M501.344,245.328h-64l0,0c-5.906,0-10.688,4.773-10.688,10.664s4.781,10.672,10.688,10.672l0,0l0,0h63.984c0,0,0,0,0.016,0 c5.875,0,10.656-4.781,10.656-10.672S507.219,245.328,501.344,245.328z"></path> <path d="M74.656,266.664h0.008c5.891,0,10.672-4.781,10.672-10.664c0-5.891-4.781-10.672-10.672-10.672H10.672h-0.008 C4.773,245.328,0,250.102,0,255.992s4.773,10.672,10.664,10.672l0,0l0,0H74.656z"></path> <path d="M391.766,135.32l0.016-0.016L437,90.07c0.016,0,0.016-0.008,0.016-0.008c4.172-4.164,4.172-10.922,0.016-15.086 c-4.188-4.164-10.938-4.164-15.094,0l0,0l0,0l-45.25,45.25v0.008c-4.172,4.164-4.172,10.914,0,15.086 C380.844,139.484,387.594,139.484,391.766,135.32z"></path> <path d="M120.234,376.68c0,0,0,0-0.008,0l-45.242,45.234c0,0,0,0.016-0.008,0.016c-4.164,4.172-4.164,10.922,0,15.078 c4.172,4.172,10.922,4.172,15.086,0c0,0,0,0,0.008,0l0,0l45.234-45.234l0.016-0.016c4.164-4.156,4.164-10.906,0-15.078 S124.398,372.508,120.234,376.68z"></path> <path d="M256,85.328c5.891,0,10.664-4.773,10.664-10.664l0,0l0,0v-64C266.664,4.773,261.891,0,256-0.008 c-5.891,0-10.664,4.781-10.664,10.672l0,0l0,0v63.984c0,0.008,0,0.008,0,0.008C245.336,80.555,250.109,85.328,256,85.328z"></path> <path d="M256,426.664c-5.891,0-10.664,4.781-10.664,10.656v0.031v63.969l0,0c0,5.906,4.773,10.672,10.664,10.688 c5.891,0,10.664-4.781,10.664-10.688l0,0l0,0v-64l0,0l0,0C266.664,431.445,261.891,426.664,256,426.664z"></path> <path d="M74.984,90.07l45.234,45.227c0,0,0.008,0.016,0.016,0.023c4.164,4.164,10.922,4.164,15.086,0 c4.164-4.172,4.164-10.922,0-15.086l0,0l0,0L90.07,74.977l0,0c-4.172-4.164-10.922-4.164-15.094,0 c-4.164,4.164-4.156,10.922,0,15.086C74.984,90.062,74.984,90.062,74.984,90.07z"></path> <path d="M437.016,421.914l-45.234-45.234l-0.016-0.016c-4.172-4.156-10.922-4.156-15.078,0c-4.172,4.172-4.172,10.938,0,15.094 c0,0,0,0,0,0.016l45.25,45.234l0,0c4.156,4.172,10.906,4.172,15.094,0c4.156-4.156,4.156-10.906,0-15.078L437.016,421.914z"></path> <path d="M256,106.664c-82.477,0-149.336,66.859-149.336,149.336S173.523,405.32,256,405.32c82.469,0,149.344-66.844,149.344-149.32 S338.469,106.664,256,106.664z M346.5,346.508c-24.156,24.172-56.312,37.5-90.5,37.5s-66.336-13.328-90.508-37.5 C141.312,322.32,128,290.195,128,256s13.312-66.336,37.492-90.516C189.664,141.312,221.812,128,256,128s66.344,13.312,90.5,37.484 c24.188,24.18,37.5,56.32,37.5,90.516S370.688,322.32,346.5,346.508z"></path> </g> </svg> 